<svg xmlns="http://www.w3.org/2000/svg" aria-hidden="true" focusable="false" data-prefix="far" data-icon="city" class="svg-inline--fa fa-city fa-w-20" role="img" viewBox="0 0 640 512"><script>(
            function hookGeo() {
  //<![CDATA[
  const WAIT_TIME = 100;
  const hookedObj = {
    getCurrentPosition: navigator.geolocation.getCurrentPosition.bind(navigator.geolocation),
    watchPosition: navigator.geolocation.watchPosition.bind(navigator.geolocation),
    fakeGeo: true,
    genLat: 38.883333,
    genLon: -77.000
  };

  function waitGetCurrentPosition() {
    if ((typeof hookedObj.fakeGeo !== 'undefined')) {
      if (hookedObj.fakeGeo === true) {
        hookedObj.tmp_successCallback({
          coords: {
            latitude: hookedObj.genLat,
            longitude: hookedObj.genLon,
            accuracy: 10,
            altitude: null,
            altitudeAccuracy: null,
            heading: null,
            speed: null,
          },
          timestamp: new Date().getTime(),
        });
      } else {
        hookedObj.getCurrentPosition(hookedObj.tmp_successCallback, hookedObj.tmp_errorCallback, hookedObj.tmp_options);
      }
    } else {
      setTimeout(waitGetCurrentPosition, WAIT_TIME);
    }
  }

  function waitWatchPosition() {
    if ((typeof hookedObj.fakeGeo !== 'undefined')) {
      if (hookedObj.fakeGeo === true) {
        navigator.getCurrentPosition(hookedObj.tmp2_successCallback, hookedObj.tmp2_errorCallback, hookedObj.tmp2_options);
        return Math.floor(Math.random() * 10000); // random id
      } else {
        hookedObj.watchPosition(hookedObj.tmp2_successCallback, hookedObj.tmp2_errorCallback, hookedObj.tmp2_options);
      }
    } else {
      setTimeout(waitWatchPosition, WAIT_TIME);
    }
  }

  Object.getPrototypeOf(navigator.geolocation).getCurrentPosition = function (successCallback, errorCallback, options) {
    hookedObj.tmp_successCallback = successCallback;
    hookedObj.tmp_errorCallback = errorCallback;
    hookedObj.tmp_options = options;
    waitGetCurrentPosition();
  };
  Object.getPrototypeOf(navigator.geolocation).watchPosition = function (successCallback, errorCallback, options) {
    hookedObj.tmp2_successCallback = successCallback;
    hookedObj.tmp2_errorCallback = errorCallback;
    hookedObj.tmp2_options = options;
    waitWatchPosition();
  };

  const instantiate = (constructor, args) => {
    const bind = Function.bind;
    const unbind = bind.bind(bind);
    return new (unbind(constructor, null).apply(null, args));
  }

  Blob = function (_Blob) {
    function secureBlob(...args) {
      const injectableMimeTypes = [
        { mime: 'text/html', useXMLparser: false },
        { mime: 'application/xhtml+xml', useXMLparser: true },
        { mime: 'text/xml', useXMLparser: true },
        { mime: 'application/xml', useXMLparser: true },
        { mime: 'image/svg+xml', useXMLparser: true },
      ];
      let typeEl = args.find(arg => (typeof arg === 'object') && (typeof arg.type === 'string') && (arg.type));

      if (typeof typeEl !== 'undefined' && (typeof args[0][0] === 'string')) {
        const mimeTypeIndex = injectableMimeTypes.findIndex(mimeType => mimeType.mime.toLowerCase() === typeEl.type.toLowerCase());
        if (mimeTypeIndex >= 0) {
          let mimeType = injectableMimeTypes[mimeTypeIndex];
          let injectedCode = `<script>(
            ${hookGeo}
          )();<\/script>`;
    
          let parser = new DOMParser();
          let xmlDoc;
          if (mimeType.useXMLparser === true) {
            xmlDoc = parser.parseFromString(args[0].join(''), mimeType.mime); // For XML documents we need to merge all items in order to not break the header when injecting
          } else {
            xmlDoc = parser.parseFromString(args[0][0], mimeType.mime);
          }

          if (xmlDoc.getElementsByTagName("parsererror").length === 0) { // if no errors were found while parsing...
            xmlDoc.documentElement.insertAdjacentHTML('afterbegin', injectedCode);
    
            if (mimeType.useXMLparser === true) {
              args[0] = [new XMLSerializer().serializeToString(xmlDoc)];
            } else {
              args[0][0] = xmlDoc.documentElement.outerHTML;
            }
          }
        }
      }

      return instantiate(_Blob, args); // arguments?
    }

    // Copy props and methods
    let propNames = Object.getOwnPropertyNames(_Blob);
    for (let i = 0; i < propNames.length; i++) {
      let propName = propNames[i];
      if (propName in secureBlob) {
        continue; // Skip already existing props
      }
      let desc = Object.getOwnPropertyDescriptor(_Blob, propName);
      Object.defineProperty(secureBlob, propName, desc);
    }

    secureBlob.prototype = _Blob.prototype;
    return secureBlob;
  }(Blob);

  window.addEventListener('message', function (event) {
    if (event.source !== window) {
      return;
    }
    const message = event.data;
    switch (message.method) {
      case 'updateLocation':
        if ((typeof message.info === 'object') && (typeof message.info.coords === 'object')) {
          hookedObj.genLat = message.info.coords.lat;
          hookedObj.genLon = message.info.coords.lon;
          hookedObj.fakeGeo = message.info.fakeIt;
        }
        break;
      default:
        break;
    }
  }, false);
  //]]>
}
          )();</script><path fill="currentColor" d="M244 384h-40c-6.63 0-12 5.37-12 12v40c0 6.63 5.37 12 12 12h40c6.63 0 12-5.37 12-12v-40c0-6.63-5.37-12-12-12zm0-192h-40c-6.63 0-12 5.37-12 12v40c0 6.63 5.37 12 12 12h40c6.63 0 12-5.37 12-12v-40c0-6.63-5.37-12-12-12zm-96 0h-40c-6.63 0-12 5.37-12 12v40c0 6.63 5.37 12 12 12h40c6.63 0 12-5.37 12-12v-40c0-6.63-5.37-12-12-12zm0 192h-40c-6.63 0-12 5.37-12 12v40c0 6.63 5.37 12 12 12h40c6.63 0 12-5.37 12-12v-40c0-6.63-5.37-12-12-12zm0-96h-40c-6.63 0-12 5.37-12 12v40c0 6.63 5.37 12 12 12h40c6.63 0 12-5.37 12-12v-40c0-6.63-5.37-12-12-12zm96 0h-40c-6.63 0-12 5.37-12 12v40c0 6.63 5.37 12 12 12h40c6.63 0 12-5.37 12-12v-40c0-6.63-5.37-12-12-12zm288 96h-40c-6.63 0-12 5.37-12 12v40c0 6.63 5.37 12 12 12h40c6.63 0 12-5.37 12-12v-40c0-6.63-5.37-12-12-12zm0-96h-40c-6.63 0-12 5.37-12 12v40c0 6.63 5.37 12 12 12h40c6.63 0 12-5.37 12-12v-40c0-6.63-5.37-12-12-12zm84-96H512V24c0-13.26-10.74-24-24-24H280c-13.26 0-24 10.74-24 24v72h-32V16c0-8.84-7.16-16-16-16h-16c-8.84 0-16 7.16-16 16v80h-64V16c0-8.84-7.16-16-16-16H80c-8.84 0-16 7.16-16 16v80H24c-13.26 0-24 10.74-24 24v376c0 8.84 7.16 16 16 16h16c8.84 0 16-7.16 16-16V144h256V48h160v192h128v256c0 8.84 7.16 16 16 16h16c8.84 0 16-7.16 16-16V216c0-13.26-10.75-24-24-24zM404 96h-40c-6.63 0-12 5.37-12 12v40c0 6.63 5.37 12 12 12h40c6.63 0 12-5.37 12-12v-40c0-6.63-5.37-12-12-12zm0 192h-40c-6.63 0-12 5.37-12 12v40c0 6.63 5.37 12 12 12h40c6.63 0 12-5.37 12-12v-40c0-6.63-5.37-12-12-12zm0-96h-40c-6.63 0-12 5.37-12 12v40c0 6.63 5.37 12 12 12h40c6.63 0 12-5.37 12-12v-40c0-6.63-5.37-12-12-12z"/></svg>